<?xml version="1.0" encoding="UTF-8" standalone="no"?>
<svg
   version="1.0"
   width="1024.000000pt"
   height="1024.000000pt"
   viewBox="0 0 1024.000000 1024.000000"
   preserveAspectRatio="xMidYMid meet"
   id="svg2"
   sodipodi:docname="LogoPort.svg"
   inkscape:version="1.4.2 (2aeb623e1d, 2025-05-12)"
   xmlns:inkscape="http://www.inkscape.org/namespaces/inkscape"
   xmlns:sodipodi="http://sodipodi.sourceforge.net/DTD/sodipodi-0.dtd"
   xmlns="http://www.w3.org/2000/svg"
   xmlns:svg="http://www.w3.org/2000/svg">
  <defs
     id="defs2">
    <inkscape:path-effect
       effect="fillet_chamfer"
       id="path-effect3"
       is_visible="true"
       lpeversion="1"
       nodesatellites_param="F,0,0,1,0,0,0,1 @ F,0,0,1,0,0,0,1 @ F,0,0,1,0,0,0,1 @ F,0,0,1,0,0,0,1 @ F,0,0,1,0,0,0,1 @ F,0,0,1,0,0,0,1 @ F,0,0,1,0,0,0,1 @ F,0,0,1,0,0,0,1 @ F,0,0,1,0,0,0,1 @ F,0,0,1,0,0,0,1 @ F,0,0,1,0,0,0,1 @ F,0,0,1,0,0,0,1 @ F,0,0,1,0,0,0,1 | F,0,0,1,0,0,0,1 @ F,0,0,1,0,0,0,1 @ F,0,0,1,0,0,0,1 @ F,0,0,1,0,0,0,1 @ F,0,0,1,0,0,0,1 @ F,0,0,1,0,0,0,1 @ F,0,0,1,0,0,0,1 @ F,0,0,1,0,0,0,1 @ F,0,0,1,0,0,0,1 @ F,0,0,1,0,0,0,1 @ F,0,0,1,0,0,0,1 @ F,0,0,1,0,0,0,1 @ F,0,0,1,0,0,0,1 @ F,0,0,1,0,0,0,1 @ F,0,0,1,0,0,0,1 @ F,0,0,1,0,0,0,1 @ F,0,0,1,0,0,0,1 @ F,0,0,1,0,0,0,1 @ F,0,0,1,0,0,0,1 | F,0,0,1,0,0,0,1 @ F,0,0,1,0,0,0,1 @ F,0,0,1,0,0,0,1 @ F,0,0,1,0,0,0,1 @ F,0,0,1,0,0,0,1 @ F,0,0,1,0,0,0,1 @ F,0,0,1,0,0,0,1 @ F,0,0,1,0,0,0,1 @ F,0,0,1,0,0,0,1 @ F,0,0,1,0,0,0,1 @ F,0,0,1,0,0,0,1 @ F,0,0,1,0,0,0,1 @ F,0,0,1,0,0,0,1 @ F,0,0,1,0,0,0,1 @ F,0,0,1,0,0,0,1 @ F,0,0,1,0,0,0,1 @ F,0,0,1,0,0,0,1 @ F,0,0,1,0,0,0,1 @ F,0,0,1,0,0,0,1 @ F,0,0,1,0,0,0,1 @ F,0,0,1,0,0,0,1 @ F,0,0,1,0,0,0,1 @ F,0,0,1,0,0,0,1 | F,0,0,1,0,0,0,1 @ F,0,0,1,0,0,0,1 @ F,0,0,1,0,0,0,1 @ F,0,0,1,0,0,0,1 @ F,0,0,1,0,0,0,1 @ F,0,0,1,0,0,0,1 @ F,0,0,1,0,0,0,1 @ F,0,0,1,0,0,0,1 @ F,0,0,1,0,0,0,1 @ F,0,0,1,0,0,0,1 @ F,0,0,1,0,0,0,1 @ F,0,0,1,0,0,0,1 @ F,0,0,1,0,0,0,1 @ F,0,0,1,0,0,0,1 @ F,0,0,1,0,0,0,1 @ F,0,0,1,0,0,0,1 @ F,0,0,1,0,0,0,1 @ F,0,0,1,0,0,0,1 @ F,0,0,1,0,0,0,1 @ F,0,0,1,0,0,0,1 @ F,0,0,1,0,0,0,1 @ F,0,0,1,0,0,0,1 @ F,0,0,1,0,0,0,1 @ F,0,0,1,0,0,0,1 @ F,0,0,1,0,0,0,1 @ F,0,0,1,0,0,0,1 @ F,0,0,1,0,0,0,1 @ F,0,0,1,0,0,0,1 @ F,0,0,1,0,0,0,1 @ F,0,0,1,0,0,0,1 @ F,0,0,1,0,0,0,1 @ F,0,0,1,0,0,0,1 @ F,0,0,1,0,0,0,1 @ F,0,0,1,0,0,0,1 @ F,0,0,1,0,0,0,1 @ F,0,0,1,0,0,0,1 @ F,0,0,1,0,0,0,1 @ F,0,0,1,0,0,0,1 @ F,0,0,1,0,0,0,1 @ F,0,0,1,0,0,0,1"
       radius="0"
       unit="px"
       method="auto"
       mode="F"
       chamfer_steps="1"
       flexible="false"
       use_knot_distance="true"
       apply_no_radius="true"
       apply_with_radius="true"
       only_selected="false"
       hide_knots="false" />
    <inkscape:perspective
       sodipodi:type="inkscape:persp3d"
       inkscape:vp_x="0 : 512 : 1"
       inkscape:vp_y="0 : 1000 : 0"
       inkscape:vp_z="1024 : 512 : 1"
       inkscape:persp3d-origin="512 : 341.33333 : 1"
       id="perspective3" />
  </defs>
  <sodipodi:namedview
     id="namedview2"
     pagecolor="#ffffff"
     bordercolor="#000000"
     borderopacity="0.25"
     inkscape:showpageshadow="2"
     inkscape:pageopacity="0.0"
     inkscape:pagecheckerboard="0"
     inkscape:deskcolor="#d1d1d1"
     inkscape:document-units="pt"
     inkscape:zoom="0.83174816"
     inkscape:cx="337.2415"
     inkscape:cy="665.46585"
     inkscape:window-width="1920"
     inkscape:window-height="1011"
     inkscape:window-x="0"
     inkscape:window-y="32"
     inkscape:window-maximized="1"
     inkscape:current-layer="g2" />
  <g
     transform="matrix(0.1,0,0,-0.1,0,1024)"
     fill="#000000"
     stroke="none"
     id="g2"
     style="display:inline">
    <path
       d="m 7703.1497,3601.981 c 98.2653,155.5342 545.219,1989.1977 -534.0092,3276.9204 -340.2164,405.9424 -999.4335,549.7988 -1548.5177,563.1504 -564.2798,13.7211 -1196.8289,-246.6226 -1617.62,-500.705 -420.7911,-254.0825 -849.7775,-605.8537 -1055.9365,-879.9504 -206.159,-274.0967 -378.1744,-547.506 -464.8015,-808.1125 -86.6272,-260.6065 -0.9202,-500.518 57.2642,-741.4937 83.5239,-345.9211 216.3058,-687.7933 412.5518,-984.6522 285.5845,-432.0001 663.9054,-874.2587 1083.1592,-1113.7366 419.2538,-239.4779 865.0464,-394.4457 1308.6939,-323.1759 909.0781,146.039 1809.6379,760.2495 2339.3048,1468.8109 M 6163.9594,6753 c 66.2473,-75 177.6631,-248 229.8578,-358 66.2473,-138 106.3971,-256 137.5132,-404 24.0899,-113 27.1012,-147 27.1012,-326 -1.0038,-160 -5.0188,-223 -22.0825,-317 -63.2359,-345 -119.6264,-637.1592 -285.0083,-907.7843 -23.6179,-38.6475 -52.0552,-88.3151 -96.7969,-95.3585 -37.6759,-5.931 -50.007,18.9627 -102.2385,51.3729 -52.2315,32.4102 -141.1246,109.8567 -219.0554,152.9643 -109.1718,60.3885 -161.1547,81.7879 -344.5994,146.077 -96.3278,33.7585 -274.8981,97.281 -431.5461,119.9618 -149.4091,21.6327 -454.39,-45.4678 -568.1961,-27.1124 -268.6254,-38.7329 -609.9956,373.4361 -573.7074,382.2079 21.0605,5.0909 270.9223,-204.0089 548.9905,-188.7354 189.6363,10.4162 336.6455,73.0587 529.6269,132.5651 305.6554,94.2498 398.2605,228.8416 582.9497,371.8416 204.7642,158 379.4159,401 455.7006,633 50.1873,153 64.2398,270 57.2135,482 -3.0112,103 -3.0112,190 0,193 14.0525,14 34.1274,3 74.2772,-41 z M 5616.918,6307 c 90.3371,-46 154.5768,-146 154.5768,-242 0,-46 -28.1049,-144 -52.1948,-183 -27.1011,-45 -97.3633,-88 -164.6143,-103 -50.1873,-11 -55.206,-15 -63.236,-48 -5.0187,-20 -15.0562,-55 -21.0786,-79 -6.0225,-23 -8.03,-47 -5.0188,-51 3.0113,-5 25.0937,-17 50.1873,-27 25.0937,-9 45.1686,-20 45.1686,-25 0,-10 -167.8622,-149.5342 -251.1731,-198.5342 -109.4083,-79.9403 -298.9938,-178.2566 -308.0275,-174.2566 -5.0187,2 44.279,105.7908 62.3464,163.7908 19.0712,58 34.1274,112 34.1274,121 1.0037,11 -61.2285,46 -200.7492,112 -186.6967,90 -200.7492,99 -194.7267,119 4.015,13 9.0337,32 12.0449,43 15.0562,54 45.1686,125 54.2023,125 5.0187,0 102.3821,-34 216.8091,-75 114.427,-41 212.7941,-75 219.8204,-75 12.0449,0 64.2397,114 64.2397,140 0,9 -11.0412,31 -23.0862,50 -56.2097,82 -64.2397,192 -21.0786,278 32.1198,64 102.382,128 163.6105,147 68.2548,22 164.6144,14 227.8504,-18 z M 3927.6137,5053 c 89.3334,-165 187.7005,-359 187.7005,-372 0,-5 -32.1199,-13 -70.2622,-17 l -71.266,-7 7.0262,-31 c 13.0487,-61 47.1761,-153 91.3409,-245 37.1386,-78 58.2173,-107 119.4458,-166 162.6068,-157 327.2211,-190 409.5283,-82 32.1198,42 78.2921,145 167.6255,381 38.1424,99 84.3616,224.0412 89.3803,229.0412 8.03,8 74.3042,3.761 144.4537,3.5856 49.4766,-0.1237 93.9983,-5.0155 140.4656,-22.9437 C 5124.9617,4666.7014 5093.9664,4582 5093.9664,4582 c -18.0675,-54 -67.251,-192 -109.4083,-309 -83.3109,-231 -90.3372,-276 -57.2135,-349 68.2547,-149 282.0525,-175 552.0602,-67 118.442,47 241.9027,121 241.9027,144 0,4 -18.0674,34 -40.1498,65 -22.0824,32 -37.1386,61 -32.1199,66 9.0337,9 474.7718,148 497.858,148 9.0337,0 16.0599,-3 16.0599,-6 0,-16 -33.1236,-135 -51.191,-183 -27.1012,-74 -123.4608,-259 -154.5769,-296 l -24.0899,-30 -38.1423,37 -38.1424,36 -80.2997,-64 c -133.4982,-107 -272.0151,-180 -426.5919,-224 -58.2173,-16 -123.4608,-23 -285.0639,-31 -319.1911,-14 -397.4833,-32 -520.9441,-115 -37.1386,-26 -70.2622,-44 -73.2734,-41 -3.0112,2 -13.0487,45 -24.0899,93 -33.1236,159 -52.1948,190 -240.899,389 -255.9552,269 -353.3185,434 -417.5583,708 l -18.0674,79 -54.2023,-7 -54.2023,-7 7.0263,54 c 12.0449,94 53.1985,254 89.3333,343 32.1199,80 82.3072,175 91.3409,175 2.0075,0 37.1386,-62 78.2922,-137 z"
       id="path1"
       style="fill:#000033;fill-opacity:1;stroke-width:1.00187"
       sodipodi:nodetypes="csacszaazaccccccaasasscssscccsccsccccccscccccccsssscscccscccccccsscccccscsssccccccccccccccccccsc" />
    <path
       d="m 5412,6164 c -71,-36 -83,-142 -23,-196 61,-55 166,-29 191,47 34,102 -73,197 -168,149 z"
       id="path2"
       style="fill:#000045;fill-opacity:1" />
  </g>
</svg>
